<svg xmlns="http://www.w3.org/2000/svg" xmlns:xlink="http://www.w3.org/1999/xlink" width="500" zoomAndPan="magnify" viewBox="0 0 375 374.999991" height="500" preserveAspectRatio="xMidYMid meet" version="1.0"><defs><clipPath id="05b63af678"><path d="M 81.25 81.25 L 293.5 81.25 L 293.5 293.5 L 81.25 293.5 Z M 81.25 81.25 " clip-rule="nonzero"/></clipPath></defs><g clip-path="url(#05b63af678)"><path fill="#6adafb" d="M 187.375 81.25 C 128.761719 81.25 81.25 128.761719 81.25 187.375 C 81.25 245.988281 128.761719 293.5 187.375 293.5 C 245.988281 293.5 293.5 245.988281 293.5 187.375 C 293.5 128.761719 245.988281 81.25 187.375 81.25 Z M 207.644531 249.925781 C 204.398438 250.550781 203.242188 248.554688 203.242188 246.835938 C 203.242188 244.726562 203.324219 237.804688 203.324219 229.210938 C 203.324219 223.214844 201.277344 219.296875 198.984375 217.3125 C 213.238281 215.722656 228.210938 210.289062 228.210938 185.601562 C 228.210938 178.585938 225.738281 172.847656 221.632812 168.355469 C 222.289062 166.734375 224.488281 160.195312 220.996094 151.355469 C 220.996094 151.355469 215.636719 149.625 203.410156 157.945312 C 198.296875 156.523438 192.820312 155.8125 187.386719 155.78125 C 181.941406 155.8125 176.464844 156.523438 171.359375 157.945312 C 159.136719 149.636719 153.765625 151.355469 153.765625 151.355469 C 150.285156 160.207031 152.480469 166.734375 153.140625 168.355469 C 149.042969 172.847656 146.546875 178.585938 146.546875 185.601562 C 146.546875 210.222656 161.492188 215.730469 175.703125 217.355469 C 173.875 218.957031 172.21875 221.792969 171.636719 225.941406 C 167.984375 227.585938 158.722656 230.417969 153.011719 220.601562 C 153.011719 220.601562 149.636719 214.4375 143.214844 213.980469 C 143.214844 213.980469 136.964844 213.894531 142.78125 217.886719 C 142.78125 217.886719 146.972656 219.859375 149.882812 227.289062 C 149.882812 227.289062 153.636719 239.789062 171.445312 235.90625 C 171.476562 241.265625 171.53125 245.308594 171.53125 246.835938 C 171.53125 248.535156 170.363281 250.519531 167.15625 249.9375 C 141.71875 241.433594 123.382812 217.355469 123.382812 188.96875 C 123.382812 153.46875 152.035156 124.707031 187.386719 124.707031 C 222.734375 124.707031 251.390625 153.480469 251.390625 188.96875 C 251.390625 217.34375 233.074219 241.414062 207.65625 249.925781 Z M 207.644531 249.925781 " fill-opacity="1" fill-rule="nonzero"/></g></svg>