<svg xmlns="http://www.w3.org/2000/svg" xmlns:xlink="http://www.w3.org/1999/xlink" width="500" zoomAndPan="magnify" viewBox="0 0 375 374.999991" height="500" preserveAspectRatio="xMidYMid meet" version="1.0"><defs><clipPath id="a7bd8a690f"><path d="M 92.808594 86.601562 L 294.558594 86.601562 L 294.558594 288.351562 L 92.808594 288.351562 Z M 92.808594 86.601562 " clip-rule="nonzero"/></clipPath><clipPath id="057d44261d"><path d="M 88.066406 83.035156 L 299.601562 83.035156 L 299.601562 294.570312 L 88.066406 294.570312 Z M 88.066406 83.035156 " clip-rule="nonzero"/></clipPath><clipPath id="ea123a03f3"><path d="M 193.707031 294.316406 C 165.503906 294.316406 138.945312 283.339844 119.015625 263.367188 C 99.042969 243.4375 88.066406 216.882812 88.066406 188.675781 C 88.066406 160.472656 99.042969 133.914062 119.015625 113.984375 C 138.945312 94.011719 165.503906 83.035156 193.707031 83.035156 C 221.910156 83.035156 248.46875 94.011719 268.398438 113.984375 C 288.371094 133.957031 299.347656 160.472656 299.347656 188.675781 C 299.347656 216.882812 288.371094 243.4375 268.398438 263.367188 C 248.46875 283.339844 221.910156 294.316406 193.707031 294.316406 M 193.707031 89.367188 C 167.191406 89.367188 142.238281 99.710938 123.492188 118.460938 C 104.742188 137.207031 94.398438 162.160156 94.398438 188.675781 C 94.398438 215.191406 104.742188 240.144531 123.492188 258.894531 C 142.238281 277.640625 167.191406 287.984375 193.707031 287.984375 C 220.222656 287.984375 245.175781 277.640625 263.921875 258.894531 C 282.671875 240.144531 293.015625 215.191406 293.015625 188.675781 C 293.015625 162.160156 282.671875 137.207031 263.921875 118.460938 C 245.175781 99.710938 220.222656 89.367188 193.707031 89.367188 " clip-rule="nonzero"/></clipPath></defs><g clip-path="url(#a7bd8a690f)"><path fill="#6adafb" d="M 193.683594 86.597656 C 249.394531 86.597656 294.5625 131.765625 294.5625 187.476562 C 294.5625 243.1875 249.394531 288.355469 193.683594 288.355469 C 137.972656 288.355469 92.804688 243.1875 92.804688 187.476562 C 92.804688 131.765625 137.972656 86.597656 193.683594 86.597656 Z M 152.109375 230.886719 L 166.328125 230.886719 L 166.328125 174.558594 L 152.109375 174.558594 Z M 196.503906 201.203125 C 196.503906 192.316406 200.691406 185.195312 210.335938 185.195312 C 219.855469 185.195312 222.9375 192.867188 222.9375 201.203125 L 222.9375 230.894531 L 237.070312 230.894531 L 237.070312 194.601562 C 237.070312 181.710938 230.824219 172.699219 217.207031 172.699219 C 211.027344 172.699219 203.890625 175.9375 200.871094 181.5625 L 196.503906 189.523438 L 196.503906 174.558594 L 183.050781 174.558594 L 183.050781 230.886719 L 196.503906 230.886719 Z M 201.160156 201.203125 L 201.160156 235.539062 L 178.394531 235.539062 L 178.394531 169.902344 L 201.160156 169.902344 L 201.160156 174.09375 C 205.65625 170.066406 211.171875 168.042969 217.207031 168.042969 C 233.394531 168.042969 241.722656 179.136719 241.722656 194.601562 L 241.722656 235.527344 L 218.28125 235.53125 L 218.28125 201.203125 C 218.28125 195.605469 217.046875 189.847656 210.335938 189.847656 C 203.332031 189.847656 201.160156 194.941406 201.160156 201.203125 Z M 159.132812 161.921875 C 164.058594 161.921875 167.964844 157.890625 167.964844 152.992188 C 167.964844 148.085938 164.058594 144.066406 159.132812 144.066406 C 154.203125 144.066406 150.296875 148.085938 150.296875 152.992188 C 150.296875 157.890625 154.199219 161.921875 159.132812 161.921875 Z M 159.132812 166.574219 C 151.652344 166.574219 145.640625 160.441406 145.640625 152.992188 C 145.640625 145.542969 151.652344 139.410156 159.132812 139.410156 C 166.605469 139.410156 172.621094 145.542969 172.621094 152.992188 C 172.621094 160.4375 166.605469 166.574219 159.132812 166.574219 Z M 147.457031 235.539062 L 147.457031 169.902344 L 170.984375 169.902344 L 170.984375 235.539062 Z M 193.683594 91.257812 C 140.542969 91.257812 97.460938 134.335938 97.460938 187.476562 C 97.460938 240.617188 140.542969 283.695312 193.683594 283.695312 C 246.824219 283.695312 289.90625 240.617188 289.90625 187.476562 C 289.90625 134.335938 246.824219 91.257812 193.683594 91.257812 Z M 193.683594 91.257812 " fill-opacity="1" fill-rule="nonzero"/></g><g clip-path="url(#057d44261d)"><g clip-path="url(#ea123a03f3)"><path fill="#111320" d="M 88.066406 83.035156 L 299.179688 83.035156 L 299.179688 294.148438 L 88.066406 294.148438 Z M 88.066406 83.035156 " fill-opacity="1" fill-rule="nonzero"/></g></g></svg>