<svg xmlns="http://www.w3.org/2000/svg" xmlns:xlink="http://www.w3.org/1999/xlink" width="500" zoomAndPan="magnify" viewBox="0 0 375 374.999991" height="500" preserveAspectRatio="xMidYMid meet" version="1.0"><defs><g/><clipPath id="e812816458"><path d="M 99.363281 98.613281 L 266.855469 98.613281 L 266.855469 266 L 99.363281 266 Z M 99.363281 98.613281 " clip-rule="nonzero"/></clipPath><clipPath id="453f11fd29"><path d="M 183.007812 265.90625 C 160.675781 265.90625 139.648438 257.210938 123.867188 241.398438 C 108.054688 225.621094 99.363281 204.589844 99.363281 182.257812 C 99.363281 159.925781 108.054688 138.898438 123.867188 123.117188 C 139.648438 107.304688 160.675781 98.613281 183.007812 98.613281 C 205.339844 98.613281 226.371094 107.304688 242.148438 123.117188 C 257.960938 138.929688 266.65625 159.925781 266.65625 182.257812 C 266.65625 204.589844 257.960938 225.621094 242.148438 241.398438 C 226.371094 257.210938 205.339844 265.90625 183.007812 265.90625 M 183.007812 103.628906 C 162.015625 103.628906 142.253906 111.820312 127.414062 126.664062 C 112.570312 141.503906 104.378906 161.265625 104.378906 182.257812 C 104.378906 203.253906 112.570312 223.011719 127.414062 237.855469 C 142.253906 252.699219 162.015625 260.890625 183.007812 260.890625 C 204.003906 260.890625 223.761719 252.699219 238.605469 237.855469 C 253.449219 223.011719 261.640625 203.253906 261.640625 182.257812 C 261.640625 161.265625 253.449219 141.503906 238.605469 126.664062 C 223.761719 111.820312 204.003906 103.628906 183.007812 103.628906 " clip-rule="nonzero"/></clipPath><clipPath id="eb6f52d12a"><path d="M 107.59375 107.59375 L 267.597656 107.59375 L 267.597656 267.597656 L 107.59375 267.597656 Z M 107.59375 107.59375 " clip-rule="nonzero"/></clipPath><clipPath id="a6da3b88a9"><path d="M 187.5 267.40625 C 166.167969 267.40625 146.078125 259.101562 131.003906 243.996094 C 115.898438 228.921875 107.59375 208.832031 107.59375 187.5 C 107.59375 166.167969 115.898438 146.078125 131.003906 131.003906 C 146.078125 115.898438 166.167969 107.59375 187.5 107.59375 C 208.832031 107.59375 228.921875 115.898438 243.996094 131.003906 C 259.101562 146.109375 267.40625 166.167969 267.40625 187.5 C 267.40625 208.832031 259.101562 228.921875 243.996094 243.996094 C 228.921875 259.101562 208.832031 267.40625 187.5 267.40625 M 187.5 112.386719 C 167.445312 112.386719 148.570312 120.210938 134.390625 134.390625 C 120.210938 148.570312 112.386719 167.445312 112.386719 187.5 C 112.386719 207.554688 120.210938 226.429688 134.390625 240.609375 C 148.570312 254.789062 167.445312 262.613281 187.5 262.613281 C 207.554688 262.613281 226.429688 254.789062 240.609375 240.609375 C 254.789062 226.429688 262.613281 207.554688 262.613281 187.5 C 262.613281 167.445312 254.789062 148.570312 240.609375 134.390625 C 226.429688 120.210938 207.554688 112.386719 187.5 112.386719 " clip-rule="nonzero"/></clipPath></defs><g clip-path="url(#e812816458)"><g clip-path="url(#453f11fd29)"><path fill="#6adafb" d="M 99.363281 98.613281 L 266.519531 98.613281 L 266.519531 265.769531 L 99.363281 265.769531 Z M 99.363281 98.613281 " fill-opacity="1" fill-rule="nonzero"/></g></g><g clip-path="url(#eb6f52d12a)"><g clip-path="url(#a6da3b88a9)"><path fill="#111320" d="M 107.59375 107.59375 L 267.277344 107.59375 L 267.277344 267.277344 L 107.59375 267.277344 Z M 107.59375 107.59375 " fill-opacity="1" fill-rule="nonzero"/></g></g><g fill="#6adafb" fill-opacity="1"><g transform="translate(135.247151, 206.624986)"><g><path d="M 21.253906 -39.859375 L 4.847656 -39.859375 L 4.847656 0 L 22.664062 0 C 30.21875 0 34.109375 -5.976562 34.109375 -11.894531 C 34.109375 -15.617188 32.472656 -19.789062 27.964844 -21.707031 C 30.667969 -23.734375 31.910156 -26.609375 31.910156 -29.484375 C 31.910156 -34.730469 27.792969 -39.859375 21.253906 -39.859375 Z M 21.140625 -23.734375 L 10.484375 -23.734375 L 10.484375 -34.445312 L 21.253906 -34.445312 C 24.46875 -34.445312 25.988281 -31.910156 25.988281 -29.261719 C 25.988281 -26.554688 24.296875 -23.734375 21.140625 -23.734375 Z M 22.664062 -5.523438 L 10.484375 -5.523438 L 10.484375 -18.097656 L 22.664062 -18.097656 C 26.496094 -18.097656 28.414062 -14.941406 28.414062 -11.839844 C 28.414062 -8.738281 26.496094 -5.523438 22.664062 -5.523438 Z M 22.664062 -5.523438 "/></g></g></g><g fill="#6adafb" fill-opacity="1"><g transform="translate(203.602491, 205.582067)"><g><path d="M 12.289062 -34.445312 L 12.289062 0 L 17.984375 0 L 17.984375 -34.445312 L 29.878906 -34.445312 L 29.878906 -39.859375 L 0.339844 -39.859375 L 0.339844 -34.445312 Z M 12.289062 -34.445312 "/></g></g></g><path stroke-linecap="butt" transform="matrix(0.000000000000000046, -0.748212, 0.75, 0.000000000000000046, 184.874128, 219.451157)" fill="none" stroke-linejoin="miter" d="M 0.00259023 3.501162 L 85.205723 3.501162 " stroke="#6adafb" stroke-width="7" stroke-opacity="1" stroke-miterlimit="4"/></svg>