<svg xmlns="http://www.w3.org/2000/svg" xmlns:xlink="http://www.w3.org/1999/xlink" width="500" zoomAndPan="magnify" viewBox="0 0 375 374.999991" height="500" preserveAspectRatio="xMidYMid meet" version="1.0"><defs><clipPath id="3227a1801d"><path d="M 112.964844 138.578125 L 243.464844 138.578125 L 243.464844 224 L 112.964844 224 Z M 112.964844 138.578125 " clip-rule="nonzero"/></clipPath><clipPath id="d5ab960e7a"><path d="M 59.574219 62.75 L 297 62.75 L 297 300 L 59.574219 300 Z M 59.574219 62.75 " clip-rule="nonzero"/></clipPath><clipPath id="16d854cab0"><path d="M 178.257812 300.117188 C 146.570312 300.117188 116.734375 287.78125 94.34375 265.34375 C 71.90625 242.957031 59.574219 213.121094 59.574219 181.433594 C 59.574219 149.746094 71.90625 119.910156 94.34375 97.519531 C 116.734375 75.082031 146.570312 62.75 178.257812 62.75 C 209.941406 62.75 239.78125 75.082031 262.167969 97.519531 C 284.605469 119.957031 296.9375 149.746094 296.9375 181.433594 C 296.9375 213.121094 284.605469 242.957031 262.167969 265.34375 C 239.78125 287.78125 209.941406 300.117188 178.257812 300.117188 M 178.257812 69.863281 C 148.464844 69.863281 120.433594 81.488281 99.371094 102.546875 C 78.308594 123.609375 66.6875 151.644531 66.6875 181.433594 C 66.6875 211.222656 78.308594 239.257812 99.371094 260.316406 C 120.433594 281.378906 148.464844 293 178.257812 293 C 208.046875 293 236.078125 281.378906 257.140625 260.316406 C 278.203125 239.257812 289.824219 211.222656 289.824219 181.433594 C 289.824219 151.644531 278.203125 123.609375 257.140625 102.546875 C 236.078125 81.488281 208.046875 69.863281 178.257812 69.863281 " clip-rule="nonzero"/></clipPath><clipPath id="7834470924"><path d="M 66.460938 73.390625 L 290 73.390625 L 290 297 L 66.460938 297 Z M 66.460938 73.390625 " clip-rule="nonzero"/></clipPath><clipPath id="663d1af76a"><path d="M 178.257812 296.976562 C 148.410156 296.976562 120.304688 285.359375 99.214844 264.222656 C 78.078125 243.132812 66.460938 215.03125 66.460938 185.183594 C 66.460938 155.335938 78.078125 127.230469 99.214844 106.140625 C 120.304688 85.007812 148.410156 73.390625 178.257812 73.390625 C 208.101562 73.390625 236.207031 85.007812 257.296875 106.140625 C 278.433594 127.273438 290.050781 155.335938 290.050781 185.183594 C 290.050781 215.03125 278.433594 243.132812 257.296875 264.222656 C 236.207031 285.359375 208.101562 296.976562 178.257812 296.976562 M 178.257812 80.089844 C 150.195312 80.089844 123.789062 91.039062 103.949219 110.878906 C 84.113281 130.714844 73.164062 157.121094 73.164062 185.183594 C 73.164062 213.242188 84.113281 239.648438 103.949219 259.488281 C 123.789062 279.328125 150.195312 290.273438 178.257812 290.273438 C 206.316406 290.273438 232.722656 279.328125 252.5625 259.488281 C 272.398438 239.648438 283.347656 213.242188 283.347656 185.183594 C 283.347656 157.121094 272.398438 130.714844 252.5625 110.878906 C 232.722656 91.039062 206.316406 80.089844 178.257812 80.089844 " clip-rule="nonzero"/></clipPath></defs><g clip-path="url(#3227a1801d)"><path fill="#6adafb" d="M 235.988281 138.800781 L 120.328125 138.800781 C 119.84375 138.800781 119.359375 138.847656 118.882812 138.945312 C 118.40625 139.039062 117.941406 139.179688 117.492188 139.367188 C 117.042969 139.550781 116.617188 139.78125 116.210938 140.050781 C 115.808594 140.320312 115.433594 140.625 115.089844 140.96875 C 114.746094 141.3125 114.4375 141.6875 114.167969 142.089844 C 113.898438 142.492188 113.667969 142.921875 113.484375 143.367188 C 113.296875 143.816406 113.15625 144.28125 113.058594 144.757812 C 112.964844 145.234375 112.917969 145.714844 112.917969 146.199219 L 112.917969 216.5625 C 112.917969 217.050781 112.964844 217.53125 113.058594 218.007812 C 113.15625 218.484375 113.296875 218.945312 113.484375 219.394531 C 113.667969 219.84375 113.898438 220.269531 114.167969 220.671875 C 114.4375 221.078125 114.746094 221.449219 115.089844 221.792969 C 115.433594 222.136719 115.808594 222.445312 116.210938 222.714844 C 116.617188 222.984375 117.042969 223.210938 117.492188 223.398438 C 117.941406 223.585938 118.40625 223.726562 118.882812 223.820312 C 119.359375 223.914062 119.84375 223.964844 120.328125 223.964844 L 235.988281 223.964844 C 236.472656 223.964844 236.957031 223.914062 237.433594 223.820312 C 237.910156 223.726562 238.375 223.585938 238.824219 223.398438 C 239.273438 223.210938 239.699219 222.984375 240.105469 222.714844 C 240.507812 222.445312 240.882812 222.136719 241.226562 221.792969 C 241.570312 221.449219 241.878906 221.078125 242.148438 220.671875 C 242.417969 220.269531 242.648438 219.84375 242.835938 219.394531 C 243.019531 218.945312 243.160156 218.484375 243.257812 218.007812 C 243.351562 217.53125 243.402344 217.050781 243.402344 216.5625 L 243.402344 146.199219 C 243.402344 145.714844 243.351562 145.234375 243.257812 144.757812 C 243.160156 144.28125 243.019531 143.816406 242.835938 143.367188 C 242.648438 142.921875 242.417969 142.492188 242.148438 142.089844 C 241.878906 141.6875 241.570312 141.3125 241.226562 140.96875 C 240.882812 140.625 240.507812 140.320312 240.105469 140.050781 C 239.699219 139.777344 239.273438 139.550781 238.824219 139.363281 C 238.375 139.179688 237.910156 139.039062 237.433594 138.941406 C 236.957031 138.847656 236.472656 138.800781 235.988281 138.800781 Z M 198.664062 181.382812 L 239.386719 145.152344 C 239.496094 145.492188 239.554688 145.839844 239.5625 146.199219 L 239.5625 216.5625 C 239.554688 216.921875 239.496094 217.273438 239.386719 217.613281 Z M 235.984375 142.632812 C 236.117188 142.640625 236.253906 142.652344 236.390625 142.675781 L 180.523438 192.378906 C 180.195312 192.671875 179.828125 192.894531 179.417969 193.050781 C 179.011719 193.207031 178.585938 193.285156 178.148438 193.285156 C 177.710938 193.285156 177.289062 193.207031 176.878906 193.050781 C 176.46875 192.894531 176.101562 192.671875 175.773438 192.378906 L 119.925781 142.675781 C 120.058594 142.652344 120.195312 142.640625 120.328125 142.632812 Z M 116.933594 217.613281 C 116.820312 217.273438 116.761719 216.921875 116.757812 216.5625 L 116.757812 146.199219 C 116.761719 145.839844 116.820312 145.492188 116.933594 145.152344 L 157.652344 181.382812 Z M 120.328125 220.132812 C 120.195312 220.125 120.058594 220.113281 119.925781 220.09375 L 160.535156 183.953125 L 173.230469 195.242188 C 173.566406 195.542969 173.925781 195.808594 174.3125 196.042969 C 174.695312 196.277344 175.101562 196.472656 175.519531 196.632812 C 175.941406 196.792969 176.375 196.914062 176.816406 196.996094 C 177.261719 197.078125 177.707031 197.117188 178.160156 197.117188 C 178.609375 197.117188 179.054688 197.078125 179.5 196.996094 C 179.941406 196.914062 180.375 196.792969 180.796875 196.632812 C 181.21875 196.472656 181.621094 196.277344 182.003906 196.042969 C 182.390625 195.808594 182.75 195.542969 183.085938 195.242188 L 195.78125 183.949219 L 236.390625 220.089844 C 236.253906 220.109375 236.121094 220.125 235.984375 220.128906 Z M 120.328125 220.132812 " fill-opacity="1" fill-rule="nonzero"/></g><g clip-path="url(#d5ab960e7a)"><g clip-path="url(#16d854cab0)"><path fill="#6adafb" d="M 59.574219 62.75 L 296.75 62.75 L 296.75 299.925781 L 59.574219 299.925781 Z M 59.574219 62.75 " fill-opacity="1" fill-rule="nonzero"/></g></g><g clip-path="url(#7834470924)"><g clip-path="url(#663d1af76a)"><path fill="#111320" d="M 66.460938 73.390625 L 289.871094 73.390625 L 289.871094 296.796875 L 66.460938 296.796875 Z M 66.460938 73.390625 " fill-opacity="1" fill-rule="nonzero"/></g></g></svg>